<mxfile host="app.diagrams.net" modified="2023-10-09T13:47:54.754Z" agent="Mozilla/5.0 (Windows NT 10.0; Win64; x64) AppleWebKit/537.36 (KHTML, like Gecko) Chrome/117.0.0.0 Safari/537.36" etag="uBTzECvyPvEUJNROpVV_" version="22.0.4" type="device">
  <diagram name="Page-1" id="e7e014a7-5840-1c2e-5031-d8a46d1fe8dd">
    <mxGraphModel dx="1838" dy="1820" grid="1" gridSize="10" guides="1" tooltips="1" connect="1" arrows="1" fold="1" page="1" pageScale="1" pageWidth="1169" pageHeight="826" background="none" math="0" shadow="0">
      <root>
        <mxCell id="0" />
        <mxCell id="1" parent="0" />
        <mxCell id="2" value="AppVeiw" style="swimlane;whiteSpace=wrap" parent="1" vertex="1">
          <mxGeometry x="30" y="130" width="414.5" height="650" as="geometry" />
        </mxCell>
        <mxCell id="Al7wdfsudiqJUCh1wfMw-51" value="&lt;p style=&quot;margin:0px;margin-top:4px;text-align:center;&quot;&gt;&lt;b&gt;aSellingApplications&amp;nbsp;&lt;/b&gt;&lt;br&gt;&lt;/p&gt;&lt;hr size=&quot;1&quot;&gt;&lt;p style=&quot;margin:0px;margin-left:4px;&quot;&gt;+ aSellingApplications()&lt;/p&gt;&lt;hr size=&quot;1&quot;&gt;&lt;p style=&quot;margin:0px;margin-left:4px;&quot;&gt;inputint(int,int): int&lt;/p&gt;&lt;p style=&quot;margin:0px;margin-left:4px;&quot;&gt;printAllProduct(iLogic): int&lt;/p&gt;&lt;p style=&quot;margin:0px;margin-left:4px;&quot;&gt;inputString(): String&lt;/p&gt;&lt;p style=&quot;margin:0px;margin-left:4px;&quot;&gt;printMessage(String): void&lt;/p&gt;&lt;p style=&quot;margin:0px;margin-left:4px;&quot;&gt;printAll(iLogic): int&lt;/p&gt;&lt;p style=&quot;margin:0px;margin-left:4px;&quot;&gt;waitInputEnter(): void&lt;/p&gt;" style="verticalAlign=top;align=left;overflow=fill;fontSize=12;fontFamily=Helvetica;html=1;whiteSpace=wrap;" vertex="1" parent="2">
          <mxGeometry x="120" y="372" width="177.75" height="158" as="geometry" />
        </mxCell>
        <mxCell id="Al7wdfsudiqJUCh1wfMw-53" value="&lt;p style=&quot;margin:0px;margin-top:4px;text-align:center;&quot;&gt;&lt;b&gt;BaseAppClientRealization&amp;nbsp;&lt;/b&gt;&lt;br&gt;&lt;/p&gt;&lt;hr size=&quot;1&quot;&gt;&lt;p style=&quot;margin:0px;margin-left:4px;&quot;&gt;+ logic: iLogic&lt;/p&gt;&lt;hr size=&quot;1&quot;&gt;&lt;p style=&quot;margin:0px;margin-left:4px;&quot;&gt;+ mainMenu(): void&lt;/p&gt;&lt;p style=&quot;margin:0px;margin-left:4px;&quot;&gt;- selectBuyMenu(int): boolean&lt;/p&gt;&lt;p style=&quot;margin:0px;margin-left:4px;&quot;&gt;- buyMenu(int): void&lt;/p&gt;&lt;p style=&quot;margin:0px;margin-left:4px;&quot;&gt;- catalogMenu(): void&lt;/p&gt;&lt;p style=&quot;margin:0px;margin-left:4px;&quot;&gt;- selectMainMenu()int: boolean&lt;/p&gt;" style="verticalAlign=top;align=left;overflow=fill;fontSize=12;fontFamily=Helvetica;html=1;whiteSpace=wrap;" vertex="1" parent="2">
          <mxGeometry x="100" y="72" width="190" height="138" as="geometry" />
        </mxCell>
        <mxCell id="Al7wdfsudiqJUCh1wfMw-56" style="edgeStyle=orthogonalEdgeStyle;rounded=0;orthogonalLoop=1;jettySize=auto;html=1;entryX=0.424;entryY=0.018;entryDx=0;entryDy=0;entryPerimeter=0;" edge="1" parent="2" source="Al7wdfsudiqJUCh1wfMw-53" target="Al7wdfsudiqJUCh1wfMw-51">
          <mxGeometry relative="1" as="geometry" />
        </mxCell>
        <mxCell id="3" value="BusinessLogic" style="swimlane;whiteSpace=wrap" parent="1" vertex="1">
          <mxGeometry x="444.5" y="128" width="335.5" height="652" as="geometry" />
        </mxCell>
        <mxCell id="Al7wdfsudiqJUCh1wfMw-49" value="&lt;p style=&quot;margin:0px;margin-top:4px;text-align:center;&quot;&gt;&lt;i&gt;&amp;lt;&amp;lt;Interface&amp;gt;&amp;gt;&lt;/i&gt;&lt;br&gt;&lt;b&gt;ILogic&lt;/b&gt;&lt;/p&gt;&lt;hr size=&quot;1&quot;&gt;&lt;p style=&quot;margin:0px;margin-left:4px;&quot;&gt;&lt;/p&gt;&lt;p style=&quot;margin:0px;margin-left:4px;&quot;&gt;+ buyProduct(int, int): void&lt;br&gt;+ showAllProducts(): List&amp;lt;Product&amp;gt;&lt;/p&gt;&lt;p style=&quot;margin:0px;margin-left:4px;&quot;&gt;+&amp;nbsp;showSelectedProduct(int) : Product&lt;/p&gt;" style="verticalAlign=top;align=left;overflow=fill;fontSize=12;fontFamily=Helvetica;html=1;whiteSpace=wrap;" vertex="1" parent="3">
          <mxGeometry x="65.5" y="102" width="227.25" height="94" as="geometry" />
        </mxCell>
        <mxCell id="Al7wdfsudiqJUCh1wfMw-50" value="&lt;p style=&quot;margin:0px;margin-top:4px;text-align:center;&quot;&gt;&lt;b&gt;AppLogic&lt;/b&gt;&lt;/p&gt;&lt;hr size=&quot;1&quot;&gt;&lt;p style=&quot;margin:0px;margin-left:4px;&quot;&gt;+ AppLogic(iProductRepo)&lt;/p&gt;&lt;hr size=&quot;1&quot;&gt;&lt;p style=&quot;margin:0px;margin-left:4px;&quot;&gt;+ buyProduct(int,int): void&lt;/p&gt;&lt;p style=&quot;margin:0px;margin-left:4px;&quot;&gt;+ showAllProducts() List&amp;lt;Product&amp;gt;&lt;/p&gt;&lt;p style=&quot;margin:0px;margin-left:4px;&quot;&gt;+ showSelectedProduct(int) Product&lt;/p&gt;&lt;p style=&quot;margin:0px;margin-left:4px;&quot;&gt;- tryGetProduct(int) Product&lt;/p&gt;" style="verticalAlign=top;align=left;overflow=fill;fontSize=12;fontFamily=Helvetica;html=1;whiteSpace=wrap;" vertex="1" parent="3">
          <mxGeometry x="72.75" y="342" width="227.25" height="125" as="geometry" />
        </mxCell>
        <mxCell id="Al7wdfsudiqJUCh1wfMw-57" value="" style="endArrow=block;dashed=1;endFill=0;endSize=12;html=1;rounded=0;entryX=0.572;entryY=0.957;entryDx=0;entryDy=0;entryPerimeter=0;exitX=0.537;exitY=-0.017;exitDx=0;exitDy=0;exitPerimeter=0;" edge="1" parent="3" source="Al7wdfsudiqJUCh1wfMw-50" target="Al7wdfsudiqJUCh1wfMw-49">
          <mxGeometry width="160" relative="1" as="geometry">
            <mxPoint x="-274.5" y="262" as="sourcePoint" />
            <mxPoint x="-114.5" y="262" as="targetPoint" />
          </mxGeometry>
        </mxCell>
        <mxCell id="4" value="Data" style="swimlane;whiteSpace=wrap" parent="1" vertex="1">
          <mxGeometry x="780" y="128" width="620" height="652" as="geometry">
            <mxRectangle x="724.5" y="128" width="70" height="30" as="alternateBounds" />
          </mxGeometry>
        </mxCell>
        <mxCell id="Al7wdfsudiqJUCh1wfMw-45" value="&lt;p style=&quot;margin:0px;margin-top:4px;text-align:center;&quot;&gt;Product&lt;br&gt;&lt;/p&gt;&lt;hr size=&quot;1&quot;&gt;&lt;p style=&quot;margin:0px;margin-left:4px;&quot;&gt;- ld: int&lt;/p&gt;&lt;p style=&quot;margin:0px;margin-left:4px;&quot;&gt;- price : int&lt;/p&gt;&lt;p style=&quot;margin:0px;margin-left:4px;&quot;&gt;- description: String&lt;/p&gt;&lt;p style=&quot;margin:0px;margin-left:4px;&quot;&gt;- count: int&lt;/p&gt;&lt;p style=&quot;margin:0px;margin-left:4px;&quot;&gt;- name: String&lt;/p&gt;&lt;hr size=&quot;1&quot;&gt;&lt;p style=&quot;margin:0px;margin-left:4px;&quot;&gt;+ price(): int&lt;/p&gt;&lt;p style=&quot;margin:0px;margin-left:4px;&quot;&gt;+ name(): String&lt;/p&gt;&lt;p style=&quot;margin:0px;margin-left:4px;&quot;&gt;+ description(): String&lt;/p&gt;&lt;p style=&quot;margin:0px;margin-left:4px;&quot;&gt;+ id(): int&lt;/p&gt;&lt;p style=&quot;margin:0px;margin-left:4px;&quot;&gt;+ count(): int&lt;/p&gt;" style="verticalAlign=top;align=left;overflow=fill;fontSize=12;fontFamily=Helvetica;html=1;whiteSpace=wrap;" vertex="1" parent="4">
          <mxGeometry x="120" y="42" width="160" height="188" as="geometry" />
        </mxCell>
        <mxCell id="Al7wdfsudiqJUCh1wfMw-46" value="&lt;p style=&quot;margin:0px;margin-top:4px;text-align:center;&quot;&gt;&lt;b&gt;DataBase&lt;/b&gt;&lt;/p&gt;&lt;hr size=&quot;1&quot;&gt;&lt;p style=&quot;margin:0px;margin-left:4px;&quot;&gt;- products : List&amp;lt;Product&amp;gt;&lt;/p&gt;&lt;hr size=&quot;1&quot;&gt;&lt;p style=&quot;margin:0px;margin-left:4px;&quot;&gt;+ instance():&lt;/p&gt;DataBase" style="verticalAlign=top;align=left;overflow=fill;fontSize=12;fontFamily=Helvetica;html=1;whiteSpace=wrap;" vertex="1" parent="4">
          <mxGeometry x="75.5" y="272" width="204.5" height="90" as="geometry" />
        </mxCell>
        <mxCell id="Al7wdfsudiqJUCh1wfMw-47" value="&lt;p style=&quot;margin:0px;margin-top:4px;text-align:center;&quot;&gt;&lt;i&gt;&amp;lt;&amp;lt;Interface&amp;gt;&amp;gt;&lt;/i&gt;&lt;br&gt;&lt;b&gt;IProductRepo&lt;/b&gt;&lt;/p&gt;&lt;hr size=&quot;1&quot;&gt;&lt;p style=&quot;margin:0px;margin-left:4px;&quot;&gt;+ allProducts : List&amp;lt;Product&amp;gt;&lt;br&gt;&lt;/p&gt;&lt;hr size=&quot;1&quot;&gt;&lt;p style=&quot;margin:0px;margin-left:4px;&quot;&gt;+ getProductById(int): Product&lt;br&gt;+ setCountProduct(int, int): void&lt;/p&gt;" style="verticalAlign=top;align=left;overflow=fill;fontSize=12;fontFamily=Helvetica;html=1;whiteSpace=wrap;" vertex="1" parent="4">
          <mxGeometry x="370" y="247" width="190" height="140" as="geometry" />
        </mxCell>
        <mxCell id="Al7wdfsudiqJUCh1wfMw-48" value="&lt;p style=&quot;margin:0px;margin-top:4px;text-align:center;&quot;&gt;&lt;b&gt;ProductRepo&lt;/b&gt;&lt;/p&gt;&lt;hr size=&quot;1&quot;&gt;&lt;p style=&quot;margin:0px;margin-left:4px;&quot;&gt;+ allProducts: List&amp;lt;Product&amp;gt;&lt;/p&gt;&amp;nbsp;&lt;hr size=&quot;1&quot;&gt;&lt;p style=&quot;margin:0px;margin-left:4px;&quot;&gt;+ getProductById(int): Product&lt;br style=&quot;border-color: var(--border-color);&quot;&gt;+ setCountProduct(int, int): void&lt;br&gt;&lt;/p&gt;" style="verticalAlign=top;align=left;overflow=fill;fontSize=12;fontFamily=Helvetica;html=1;whiteSpace=wrap;" vertex="1" parent="4">
          <mxGeometry x="120" y="462" width="194.5" height="118" as="geometry" />
        </mxCell>
        <mxCell id="Al7wdfsudiqJUCh1wfMw-60" value="" style="endArrow=block;dashed=1;endFill=0;endSize=12;html=1;rounded=0;entryX=0.25;entryY=1;entryDx=0;entryDy=0;exitX=1;exitY=0.5;exitDx=0;exitDy=0;" edge="1" parent="4" source="Al7wdfsudiqJUCh1wfMw-48" target="Al7wdfsudiqJUCh1wfMw-47">
          <mxGeometry width="160" relative="1" as="geometry">
            <mxPoint x="300" y="462" as="sourcePoint" />
            <mxPoint x="300" y="314" as="targetPoint" />
            <Array as="points">
              <mxPoint x="420" y="522" />
            </Array>
          </mxGeometry>
        </mxCell>
        <mxCell id="Al7wdfsudiqJUCh1wfMw-62" value="1" style="endArrow=open;html=1;endSize=12;startArrow=diamondThin;startSize=14;startFill=1;edgeStyle=orthogonalEdgeStyle;align=left;verticalAlign=bottom;rounded=0;exitX=0.25;exitY=1;exitDx=0;exitDy=0;entryX=0.5;entryY=0;entryDx=0;entryDy=0;" edge="1" parent="4" source="Al7wdfsudiqJUCh1wfMw-46" target="Al7wdfsudiqJUCh1wfMw-48">
          <mxGeometry x="-1" y="3" relative="1" as="geometry">
            <mxPoint x="50" y="412" as="sourcePoint" />
            <mxPoint x="210" y="412" as="targetPoint" />
          </mxGeometry>
        </mxCell>
        <mxCell id="Al7wdfsudiqJUCh1wfMw-64" value="1" style="endArrow=open;html=1;endSize=12;startArrow=diamondThin;startSize=14;startFill=1;edgeStyle=orthogonalEdgeStyle;align=left;verticalAlign=bottom;rounded=0;exitX=-0.005;exitY=0.36;exitDx=0;exitDy=0;exitPerimeter=0;entryX=-0.013;entryY=0.599;entryDx=0;entryDy=0;entryPerimeter=0;" edge="1" parent="4" source="Al7wdfsudiqJUCh1wfMw-46" target="Al7wdfsudiqJUCh1wfMw-45">
          <mxGeometry x="-0.6955" y="-10" relative="1" as="geometry">
            <mxPoint x="50" y="302" as="sourcePoint" />
            <mxPoint x="140" y="232" as="targetPoint" />
            <Array as="points">
              <mxPoint x="50" y="304" />
              <mxPoint x="50" y="155" />
            </Array>
            <mxPoint as="offset" />
          </mxGeometry>
        </mxCell>
        <mxCell id="Al7wdfsudiqJUCh1wfMw-59" value="1" style="endArrow=open;html=1;endSize=12;startArrow=diamondThin;startSize=14;startFill=1;edgeStyle=orthogonalEdgeStyle;align=left;verticalAlign=bottom;rounded=0;entryX=0.75;entryY=1;entryDx=0;entryDy=0;exitX=0.586;exitY=0.992;exitDx=0;exitDy=0;exitPerimeter=0;" edge="1" parent="1" source="Al7wdfsudiqJUCh1wfMw-50" target="Al7wdfsudiqJUCh1wfMw-47">
          <mxGeometry x="-0.9302" y="10" relative="1" as="geometry">
            <mxPoint x="650" y="610" as="sourcePoint" />
            <mxPoint x="830" y="430" as="targetPoint" />
            <Array as="points">
              <mxPoint x="650" y="640" />
              <mxPoint x="650" y="730" />
              <mxPoint x="1292" y="730" />
            </Array>
            <mxPoint as="offset" />
          </mxGeometry>
        </mxCell>
        <mxCell id="Al7wdfsudiqJUCh1wfMw-63" value="" style="endArrow=block;dashed=1;endFill=0;endSize=12;html=1;rounded=0;exitX=0.893;exitY=-0.018;exitDx=0;exitDy=0;exitPerimeter=0;" edge="1" parent="1" source="Al7wdfsudiqJUCh1wfMw-46">
          <mxGeometry width="160" relative="1" as="geometry">
            <mxPoint x="830" y="540" as="sourcePoint" />
            <mxPoint x="1040" y="360" as="targetPoint" />
          </mxGeometry>
        </mxCell>
        <mxCell id="Al7wdfsudiqJUCh1wfMw-58" value="1" style="endArrow=open;html=1;endSize=12;startArrow=diamondThin;startSize=14;startFill=1;edgeStyle=orthogonalEdgeStyle;align=left;verticalAlign=bottom;rounded=0;exitX=1;exitY=0.5;exitDx=0;exitDy=0;" edge="1" parent="1" source="Al7wdfsudiqJUCh1wfMw-53" target="Al7wdfsudiqJUCh1wfMw-49">
          <mxGeometry x="-1" y="3" relative="1" as="geometry">
            <mxPoint x="340" y="270" as="sourcePoint" />
            <mxPoint x="510" y="277.48" as="targetPoint" />
            <Array as="points">
              <mxPoint x="340" y="269" />
              <mxPoint x="340" y="280" />
            </Array>
          </mxGeometry>
        </mxCell>
        <mxCell id="Al7wdfsudiqJUCh1wfMw-65" value="" style="endArrow=block;dashed=1;endFill=0;endSize=12;html=1;rounded=0;exitX=0.75;exitY=0;exitDx=0;exitDy=0;entryX=-0.012;entryY=0.816;entryDx=0;entryDy=0;entryPerimeter=0;" edge="1" parent="1" source="Al7wdfsudiqJUCh1wfMw-51" target="Al7wdfsudiqJUCh1wfMw-49">
          <mxGeometry width="160" relative="1" as="geometry">
            <mxPoint x="420" y="440" as="sourcePoint" />
            <mxPoint x="580" y="440" as="targetPoint" />
            <Array as="points">
              <mxPoint x="283" y="400" />
              <mxPoint x="400" y="400" />
              <mxPoint x="400" y="310" />
            </Array>
          </mxGeometry>
        </mxCell>
      </root>
    </mxGraphModel>
  </diagram>
</mxfile>
